<svg width="120" height="20" viewBox="0 0 120 20" fill="none" xmlns="http://www.w3.org/2000/svg">
<path d="M9.10325 3.48338C9.47009 2.74021 10.5298 2.74021 10.8967 3.48338L12.3425 6.4125C12.4881 6.70735 12.7692 6.91181 13.0946 6.95937L16.3295 7.4322C17.1494 7.55204 17.4762 8.55988 16.8826 9.13804L14.5434 11.4164C14.3075 11.6462 14.1999 11.9773 14.2555 12.3018L14.8074 15.5194C14.9475 16.3363 14.09 16.9593 13.3563 16.5735L10.4654 15.0532C10.174 14.9 9.82589 14.9 9.53451 15.0532L6.64359 16.5735C5.90996 16.9593 5.05241 16.3363 5.19253 15.5194L5.74438 12.3018C5.80004 11.9773 5.69238 11.6462 5.4565 11.4164L3.11731 9.13804C2.52371 8.55988 2.85049 7.55204 3.67041 7.4322L6.90533 6.95937C7.23068 6.91181 7.51187 6.70735 7.6574 6.4125L9.10325 3.48338Z" fill="#FF7E1E"/>
<path d="M34.1033 3.48338C34.4701 2.74021 35.5298 2.74021 35.8967 3.48338L37.3425 6.4125C37.4881 6.70735 37.7692 6.91181 38.0946 6.95937L41.3295 7.4322C42.1494 7.55204 42.4762 8.55988 41.8826 9.13804L39.5434 11.4164C39.3075 11.6462 39.1999 11.9773 39.2555 12.3018L39.8074 15.5194C39.9475 16.3363 39.09 16.9593 38.3563 16.5735L35.4654 15.0532C35.174 14.9 34.8259 14.9 34.5345 15.0532L31.6436 16.5735C30.91 16.9593 30.0524 16.3363 30.1925 15.5194L30.7444 12.3018C30.8 11.9773 30.6924 11.6462 30.4565 11.4164L28.1173 9.13804C27.5237 8.55988 27.8505 7.55204 28.6704 7.4322L31.9053 6.95937C32.2307 6.91181 32.5119 6.70735 32.6574 6.4125L34.1033 3.48338Z" fill="#FF7E1E"/>
<path d="M59.1033 3.48338C59.4701 2.74021 60.5298 2.74021 60.8967 3.48338L62.3425 6.4125C62.4881 6.70735 62.7692 6.91181 63.0946 6.95937L66.3295 7.4322C67.1494 7.55204 67.4762 8.55988 66.8826 9.13804L64.5434 11.4164C64.3075 11.6462 64.1999 11.9773 64.2555 12.3018L64.8074 15.5194C64.9475 16.3363 64.09 16.9593 63.3563 16.5735L60.4654 15.0532C60.174 14.9 59.8259 14.9 59.5345 15.0532L56.6436 16.5735C55.91 16.9593 55.0524 16.3363 55.1925 15.5194L55.7444 12.3018C55.8 11.9773 55.6924 11.6462 55.4565 11.4164L53.1173 9.13804C52.5237 8.55988 52.8505 7.55204 53.6704 7.4322L56.9053 6.95937C57.2307 6.91181 57.5119 6.70735 57.6574 6.4125L59.1033 3.48338Z" fill="#FF7E1E"/>
<path d="M84.1033 3.48338C84.4701 2.74021 85.5298 2.74021 85.8967 3.48338L87.3425 6.4125C87.4881 6.70735 87.7692 6.91181 88.0946 6.95937L91.3295 7.4322C92.1494 7.55204 92.4762 8.55988 91.8826 9.13804L89.5434 11.4164C89.3075 11.6462 89.1999 11.9773 89.2555 12.3018L89.8074 15.5194C89.9475 16.3363 89.09 16.9593 88.3563 16.5735L85.4654 15.0532C85.174 14.9 84.8259 14.9 84.5345 15.0532L81.6436 16.5735C80.91 16.9593 80.0524 16.3363 80.1925 15.5194L80.7444 12.3018C80.8 11.9773 80.6924 11.6462 80.4565 11.4164L78.1173 9.13804C77.5237 8.55988 77.8505 7.55204 78.6704 7.4322L81.9053 6.95937C82.2307 6.91181 82.5119 6.70735 82.6574 6.4125L84.1033 3.48338Z" fill="#FF7E1E"/>
<path d="M109.103 3.48338C109.47 2.74021 110.53 2.74021 110.897 3.48338L112.343 6.4125C112.488 6.70735 112.769 6.91181 113.095 6.95937L116.33 7.4322C117.149 7.55204 117.476 8.55988 116.883 9.13804L114.543 11.4164C114.308 11.6462 114.2 11.9773 114.256 12.3018L114.807 15.5194C114.948 16.3363 114.09 16.9593 113.356 16.5735L110.465 15.0532C110.174 14.9 109.826 14.9 109.535 15.0532L106.644 16.5735C105.91 16.9593 105.052 16.3363 105.193 15.5194L105.744 12.3018C105.8 11.9773 105.692 11.6462 105.457 11.4164L103.117 9.13804C102.524 8.55988 102.85 7.55204 103.67 7.4322L106.905 6.95937C107.231 6.91181 107.512 6.70735 107.657 6.4125L109.103 3.48338Z" fill="#FF7E1E"/>
</svg>
