<svg width="40" height="40" viewBox="0 0 40 40" fill="none" xmlns="http://www.w3.org/2000/svg">
<rect width="40" height="40" rx="2" fill="#FF7E1E"/>
<path d="M19.4595 7.56738L10.2102 16.8166V30.0298C10.2102 30.7596 10.8018 31.3512 11.5315 31.3512H15.4955C16.2252 31.3512 16.8168 30.7596 16.8168 30.0298V24.7446C16.8168 24.0148 17.4084 23.4232 18.1381 23.4232H20.7808C21.5105 23.4232 22.1021 24.0148 22.1021 24.7446V30.0298C22.1021 30.7596 22.6937 31.3512 23.4234 31.3512H27.3874C28.1171 31.3512 28.7087 30.7596 28.7087 30.0298V16.8166L19.4595 7.56738Z" fill="white"/>
<path d="M7.56757 19.4593L10.2102 16.8166M10.2102 16.8166L19.4595 7.56738L28.7087 16.8166M10.2102 16.8166V30.0298C10.2102 30.7596 10.8018 31.3512 11.5315 31.3512H15.4955M28.7087 16.8166L31.3514 19.4593M28.7087 16.8166V30.0298C28.7087 30.7596 28.1171 31.3512 27.3874 31.3512H23.4234M15.4955 31.3512C16.2252 31.3512 16.8168 30.7596 16.8168 30.0298V24.7446C16.8168 24.0148 17.4084 23.4232 18.1381 23.4232H20.7808C21.5105 23.4232 22.1021 24.0148 22.1021 24.7446V30.0298C22.1021 30.7596 22.6937 31.3512 23.4234 31.3512M15.4955 31.3512H23.4234" stroke="white" stroke-width="2" stroke-linecap="round" stroke-linejoin="round"/>
</svg>
