<svg width="76" height="75" viewBox="0 0 76 75" fill="none" xmlns="http://www.w3.org/2000/svg">
<circle cx="37.5" cy="37.5" r="37.5" transform="matrix(-1 0 0 1 75.1665 0)" fill="#FF7E1E"/>
<path d="M45.8664 23.1504L50.567 18.4498C50.9514 18.0655 51.4727 17.8496 52.0163 17.8496C52.5599 17.8496 53.0812 18.0655 53.4657 18.4498L56.7169 21.7011C57.1012 22.0855 57.3171 22.6068 57.3171 23.1504C57.3171 23.694 57.1012 24.2153 56.7169 24.5997L52.0163 29.3003M45.8664 23.1504L34.1672 34.8496C33.7827 35.234 33.5666 35.7553 33.5665 36.299V39.5502C33.5665 40.0939 33.7825 40.6153 34.1669 40.9998C34.5514 41.3842 35.0728 41.6002 35.6165 41.6002H38.8678C39.4114 41.6001 39.9327 41.384 40.3171 40.9996L52.0163 29.3003M45.8664 23.1504L52.0163 29.3003M25.3666 41.6002H23.3166C22.2293 41.6002 21.1864 42.0322 20.4175 42.8011C19.6486 43.57 19.2167 44.6128 19.2167 45.7002V45.7002C19.2167 46.7876 19.6486 47.8304 20.4175 48.5993C21.1864 49.3682 22.2293 49.8001 23.3166 49.8001H52.0163C53.1037 49.8001 54.1465 50.2321 54.9154 51.001C55.6843 51.7699 56.1163 52.8127 56.1163 53.9001C56.1163 54.9875 55.6843 56.0303 54.9154 56.7992C54.1465 57.5681 53.1037 58 52.0163 58H43.8164" stroke="white" stroke-width="4" stroke-linecap="round" stroke-linejoin="round"/>
</svg>
