<svg width="32" height="33" viewBox="0 0 32 33" fill="none" xmlns="http://www.w3.org/2000/svg">
<path d="M16 3.5C12.5522 3.5 9.24558 4.86964 6.80761 7.30761C4.36964 9.74558 3 13.0522 3 16.5C3 19.9478 4.36964 23.2544 6.80761 25.6924C9.24558 28.1304 12.5522 29.5 16 29.5C18.6888 29.5 21.5125 28.69 23.5537 27.3337C23.6632 27.261 23.7572 27.1675 23.8304 27.0584C23.9037 26.9494 23.9547 26.827 23.9807 26.6982C24.0066 26.5694 24.0069 26.4368 23.9816 26.3078C23.9563 26.1789 23.9058 26.0563 23.8331 25.9469C23.7604 25.8375 23.6668 25.7435 23.5578 25.6702C23.4487 25.597 23.3263 25.5459 23.1975 25.52C23.0688 25.494 22.9361 25.4937 22.8072 25.519C22.6783 25.5443 22.5557 25.5948 22.4463 25.6675C20.75 26.7975 18.2762 27.5 16 27.5C13.8244 27.5 11.6977 26.8549 9.88873 25.6462C8.07979 24.4375 6.66989 22.7195 5.83733 20.7095C5.00476 18.6995 4.78692 16.4878 5.21136 14.354C5.6358 12.2202 6.68345 10.2602 8.22183 8.72183C9.7602 7.18345 11.7202 6.1358 13.854 5.71136C15.9878 5.28692 18.1995 5.50476 20.2095 6.33733C22.2195 7.16989 23.9375 8.57979 25.1462 10.3887C26.3549 12.1977 27 14.3244 27 16.5C27 19.8062 25.64 20.5 24.5 20.5C23.36 20.5 22 19.8062 22 16.5V11.5C22 11.2348 21.8946 10.9804 21.7071 10.7929C21.5196 10.6054 21.2652 10.5 21 10.5C20.7348 10.5 20.4804 10.6054 20.2929 10.7929C20.1054 10.9804 20 11.2348 20 11.5V12.0325C19.1026 11.2279 17.9837 10.7122 16.789 10.5527C15.5944 10.3931 14.3793 10.597 13.3022 11.1379C12.2251 11.6788 11.3359 12.5315 10.7503 13.5849C10.1648 14.6384 9.91007 15.8438 10.0194 17.0441C10.1287 18.2445 10.597 19.384 11.3633 20.3144C12.1295 21.2447 13.1582 21.9227 14.3153 22.2601C15.4724 22.5974 16.7043 22.5784 17.8505 22.2056C18.9967 21.8328 20.004 21.1235 20.7412 20.17C21.4912 21.67 22.785 22.5 24.5 22.5C27.3175 22.5 29 20.2575 29 16.5C28.9964 13.0533 27.6256 9.74882 25.1884 7.31163C22.7512 4.87445 19.4467 3.50364 16 3.5ZM16 20.5C15.2089 20.5 14.4355 20.2654 13.7777 19.8259C13.1199 19.3864 12.6072 18.7616 12.3045 18.0307C12.0017 17.2998 11.9225 16.4956 12.0769 15.7196C12.2312 14.9437 12.6122 14.231 13.1716 13.6716C13.731 13.1122 14.4437 12.7312 15.2196 12.5769C15.9956 12.4225 16.7998 12.5017 17.5307 12.8045C18.2616 13.1072 18.8864 13.6199 19.3259 14.2777C19.7654 14.9355 20 15.7089 20 16.5C20 17.5609 19.5786 18.5783 18.8284 19.3284C18.0783 20.0786 17.0609 20.5 16 20.5Z" fill="#052014"/>
</svg>
