<svg width="32" height="33" viewBox="0 0 32 33" fill="none" xmlns="http://www.w3.org/2000/svg">
<path d="M19.0338 5.24124C19.0677 5.11433 19.1263 4.99535 19.2063 4.8911C19.2862 4.78686 19.3859 4.69938 19.4997 4.63368C19.6134 4.56798 19.739 4.52533 19.8693 4.50819C19.9995 4.49104 20.1319 4.49972 20.2588 4.53374C22.1126 5.01743 23.804 5.98655 25.1587 7.34129C26.5135 8.69603 27.4826 10.3874 27.9663 12.2412C28.0003 12.3681 28.009 12.5005 27.9918 12.6307C27.9747 12.761 27.932 12.8866 27.8663 13.0003C27.8006 13.1141 27.7131 13.2138 27.6089 13.2937C27.5047 13.3737 27.3857 13.4323 27.2588 13.4662C27.1743 13.4884 27.0873 13.4998 27 13.5C26.7796 13.5 26.5655 13.4272 26.3907 13.2929C26.216 13.1586 26.0905 12.9704 26.0338 12.7575C25.6393 11.2441 24.8483 9.86338 23.7425 8.75752C22.6366 7.65166 21.2559 6.86073 19.7425 6.46624C19.6155 6.43243 19.4964 6.37391 19.392 6.29402C19.2876 6.21414 19.2 6.11446 19.1342 6.00068C19.0683 5.88691 19.0256 5.76127 19.0084 5.63096C18.9911 5.50064 18.9998 5.36821 19.0338 5.24124ZM18.7425 10.4662C20.4663 10.9262 21.5738 12.0337 22.0338 13.7575C22.0905 13.9704 22.216 14.1586 22.3907 14.2929C22.5655 14.4272 22.7796 14.5 23 14.5C23.0873 14.4998 23.1743 14.4884 23.2588 14.4662C23.3857 14.4323 23.5047 14.3737 23.6089 14.2937C23.7131 14.2138 23.8006 14.1141 23.8663 14.0003C23.932 13.8866 23.9747 13.761 23.9918 13.6307C24.009 13.5005 24.0003 13.3681 23.9663 13.2412C23.3263 10.8462 21.6538 9.17374 19.2588 8.53374C19.1319 8.49984 18.9995 8.49127 18.8693 8.50851C18.7391 8.52575 18.6136 8.56847 18.4999 8.63423C18.3862 8.69998 18.2866 8.78749 18.2067 8.89175C18.1268 8.99601 18.0683 9.11498 18.0344 9.24187C18.0005 9.36876 17.9919 9.50108 18.0092 9.63128C18.0264 9.76149 18.0691 9.88702 18.1349 10.0007C18.2006 10.1144 18.2881 10.214 18.3924 10.2939C18.4967 10.3738 18.6156 10.4323 18.7425 10.4662ZM28.985 22.385C28.7621 24.0788 27.9303 25.6335 26.6449 26.7588C25.3595 27.8841 23.7084 28.5031 22 28.5C12.075 28.5 4.00001 20.425 4.00001 10.5C3.99695 8.7916 4.61587 7.14052 5.74118 5.85511C6.86649 4.5697 8.42122 3.73787 10.115 3.51499C10.5433 3.46269 10.9771 3.55032 11.3515 3.76479C11.7259 3.97926 12.0209 4.30907 12.1925 4.70499L14.8325 10.5987V10.6137C14.9639 10.9168 15.0181 11.2477 14.9904 11.5768C14.9627 11.906 14.8539 12.2231 14.6738 12.5C14.6513 12.5337 14.6275 12.565 14.6025 12.5962L12 15.6812C12.9363 17.5837 14.9263 19.5562 16.8538 20.495L19.8963 17.9062C19.9261 17.8811 19.9574 17.8578 19.99 17.8362C20.2666 17.6517 20.5849 17.5391 20.916 17.5086C21.2471 17.478 21.5806 17.5305 21.8863 17.6612L21.9025 17.6687L27.7913 20.3075C28.1879 20.4785 28.5185 20.7732 28.7337 21.1477C28.9489 21.5222 29.037 21.9562 28.985 22.385ZM27 22.135C27 22.135 26.9913 22.135 26.9863 22.135L21.1113 19.5037L18.0675 22.0925C18.038 22.1175 18.0071 22.1409 17.975 22.1625C17.6872 22.3545 17.3545 22.4686 17.0094 22.4935C16.6644 22.5185 16.3187 22.4536 16.0063 22.305C13.665 21.1737 11.3313 18.8575 10.1988 16.5412C10.0488 16.2311 9.9815 15.8874 10.0034 15.5436C10.0253 15.1997 10.1357 14.8674 10.3238 14.5787C10.345 14.5448 10.3688 14.5127 10.395 14.4825L13 11.3937L10.375 5.51874C10.3745 5.51375 10.3745 5.50873 10.375 5.50374C9.16283 5.66186 8.04986 6.25645 7.24453 7.17613C6.43919 8.09582 5.99674 9.27754 6.00001 10.5C6.00464 14.742 7.69184 18.809 10.6914 21.8086C13.691 24.8082 17.758 26.4954 22 26.5C23.2217 26.5042 24.4031 26.0633 25.3233 25.2597C26.2436 24.4561 26.8396 23.3449 27 22.1337V22.135Z" fill="#052014"/>
</svg>
