<svg width="76" height="75" viewBox="0 0 76 75" fill="none" xmlns="http://www.w3.org/2000/svg">
<circle cx="37.5" cy="37.5" r="37.5" transform="matrix(-1 0 0 1 75.8331 0)" fill="#FF7E1E"/>
<g clip-path="url(#clip0_257153_3594)">
<path fill-rule="evenodd" clip-rule="evenodd" d="M16.1935 39.9602C13.9303 39.9602 12.8676 37.1633 14.5601 35.6627L36.6998 15.9829C37.15 15.5831 37.7312 15.3623 38.3333 15.3623C38.9353 15.3623 39.5165 15.5831 39.9667 15.9829L62.1064 35.6627C63.7989 37.1633 62.7362 39.9602 60.473 39.9602H58.0131V57.1801C58.0131 57.8325 57.7539 58.4582 57.2925 58.9195C56.8312 59.3809 56.2055 59.64 55.5531 59.64H21.1134C20.461 59.64 19.8353 59.3809 19.374 58.9195C18.9126 58.4582 18.6535 57.8325 18.6535 57.1801V39.9602H16.1935ZM30.9533 54.7201V42.4202C30.9533 41.7678 31.2125 41.1421 31.6739 40.6808C32.1352 40.2194 32.7609 39.9602 33.4133 39.9602H43.2532C43.9056 39.9602 44.5313 40.2194 44.9927 40.6808C45.454 41.1421 45.7132 41.7678 45.7132 42.4202V54.7201H53.0931V37.5003C53.093 37.0626 53.2097 36.6329 53.4311 36.2554C53.6525 35.8779 53.9706 35.5663 54.3526 35.3527L38.3333 21.1095L22.3139 35.3527C22.6959 35.5663 23.014 35.8779 23.2354 36.2554C23.4568 36.6329 23.5735 37.0626 23.5734 37.5003V54.7201H30.9533ZM35.8733 54.7201V44.8802H40.7932V54.7201H35.8733Z" fill="white"/>
</g>
<defs>
<clipPath id="clip0_257153_3594">
<rect width="49.1995" height="49.1995" fill="white" transform="translate(13.7334 12.9004)"/>
</clipPath>
</defs>
</svg>
