<svg width="76" height="75" viewBox="0 0 76 75" fill="none" xmlns="http://www.w3.org/2000/svg">
<circle cx="37.5" cy="37.5" r="37.5" transform="matrix(-1 0 0 1 75.4999 0)" fill="#FF7E1E"/>
<g clip-path="url(#clip0_257153_3600)">
<path d="M39.4389 17.4L53.7888 22.7812C54.5705 23.0742 55.2441 23.5989 55.7196 24.285C56.195 24.9711 56.4498 25.786 56.4497 26.6208V37.6149C56.4497 41.0412 55.4957 44.4 53.6943 47.3146C51.893 50.2293 49.3157 52.5848 46.251 54.1172L39.3754 57.555C38.9483 57.7686 38.4774 57.8798 37.9999 57.8798C37.5223 57.8798 37.0514 57.7686 36.6243 57.555L29.7487 54.1172C26.6841 52.5848 24.1067 50.2293 22.3054 47.3146C20.504 44.4 19.55 41.0412 19.55 37.6149V26.6208C19.5499 25.786 19.8047 24.9711 20.2802 24.285C20.7556 23.5989 21.4292 23.0742 22.2109 22.7812L36.5608 17.4C37.4886 17.0522 38.5111 17.0522 39.4389 17.4ZM37.9999 21.2396L23.65 26.6208V37.6149C23.6505 40.2796 24.3929 42.8915 25.7941 45.158C27.1953 47.4246 29.1999 49.2562 31.5834 50.4477L37.9999 53.66L44.4163 50.4518C46.8004 49.26 48.8054 47.4277 50.2067 45.1604C51.6079 42.8931 52.35 40.2802 52.3497 37.6149V26.6208L37.9999 21.2396ZM37.9999 29.3001C38.8749 29.2998 39.7271 29.5794 40.4319 30.0981C41.1366 30.6168 41.6569 31.3474 41.9167 32.1831C42.1764 33.0187 42.162 33.9155 41.8756 34.7423C41.5891 35.5692 41.0456 36.2827 40.3245 36.7785L40.0498 36.9527V43.65C40.0493 44.1725 39.8492 44.675 39.4905 45.055C39.1318 45.4349 38.6416 45.6636 38.12 45.6942C37.5984 45.7248 37.0848 45.5551 36.6841 45.2197C36.2834 44.8844 36.0259 44.4087 35.9642 43.8898L35.9499 43.65V36.9527C35.1673 36.5019 34.5555 35.8052 34.2094 34.971C33.8634 34.1368 33.8025 33.2116 34.0362 32.3392C34.2699 31.4668 34.7851 30.696 35.5018 30.1464C36.2186 29.5969 37.0967 29.2994 37.9999 29.3001Z" fill="white"/>
</g>
<defs>
<clipPath id="clip0_257153_3600">
<rect width="49.1995" height="49.1995" fill="white" transform="translate(13.4001 12.9004)"/>
</clipPath>
</defs>
</svg>
