<svg width="76" height="75" viewBox="0 0 76 75" fill="none" xmlns="http://www.w3.org/2000/svg">
<circle cx="37.5" cy="37.5" r="37.5" transform="matrix(-1 0 0 1 75.4999 0)" fill="#FF7E1E"/>
<path d="M37.9999 51.8499V57.9999M29.8 51.8499H46.1999C47.9393 51.8431 49.6314 51.2833 51.0317 50.2515C52.432 49.2197 53.468 47.7693 53.9898 46.11C54.5078 44.4241 54.4685 42.6161 53.8777 40.9543C53.2868 39.2925 52.1759 37.8655 50.7098 36.8851C52.7598 34.6301 52.7598 31.3502 51.5298 28.6852C50.0948 26.2252 47.0199 24.5852 44.1499 25.2002C44.1499 23.5692 43.5019 22.0049 42.3486 20.8516C41.1953 19.6982 39.631 19.0503 37.9999 19.0503C36.3689 19.0503 34.8046 19.6982 33.6513 20.8516C32.4979 22.0049 31.85 23.5692 31.85 25.2002C28.98 24.7902 25.9051 26.2252 24.4701 28.6852C23.0351 31.3502 23.4451 34.6301 25.2901 36.8851C23.824 37.8655 22.7131 39.2925 22.1222 40.9543C21.5314 42.6161 21.492 44.4241 22.0101 46.11C22.5319 47.7693 23.5679 49.2197 24.9682 50.2515C26.3685 51.2833 28.0606 51.8431 29.8 51.8499V51.8499Z" stroke="white" stroke-width="3.85451" stroke-linecap="round" stroke-linejoin="round"/>
</svg>
